HIERARCHY
ROOT Root
{
  OFFSET 0.0 0.0 0.0
  CHANNELS 6 Xposition Yposition Zposition Zrotation Yrotation Xrotation
  JOINT Hips
  {
    OFFSET 0.0 100.0 0.0
    CHANNELS 6 Xposition Yposition Zposition Zrotation Yrotation Xrotation
    JOINT Spine1
    {
      OFFSET 5.003913 -0.037094 -0.013727
      CHANNELS 3 Zrotation Yrotation Xrotation
      JOINT Spine2
      {
        OFFSET 7.125363 -1e-06 0.0
        CHANNELS 3 Zrotation Yrotation Xrotation
        JOINT Chest
        {
          OFFSET 7.594027 1e-06 0.0
          CHANNELS 3 Zrotation Yrotation Xrotation
          JOINT Neck1
          {
            OFFSET 26.313086 -0.460272 -0.181672
            CHANNELS 3 Zrotation Yrotation Xrotation
            JOINT Neck2
            {
              OFFSET 8.045911 0.0 0.0
              CHANNELS 3 Zrotation Yrotation Xrotation
              JOINT Head
              {
                OFFSET 6.432774 0.0 0.0
                CHANNELS 3 Zrotation Yrotation Xrotation
                JOINT HeadEnd
                {
                  OFFSET 16.169773 0.06451 0.00362
                  CHANNELS 3 Zrotation Yrotation Xrotation
                }
                JOINT Jaw
                {
                  OFFSET 0.108741 3.12938 0.002639
                  CHANNELS 3 Zrotation Yrotation Xrotation
                }
                JOINT LeftEye
                {
                  OFFSET 4.45173 8.166359 3.206392
                  CHANNELS 3 Zrotation Yrotation Xrotation
                }
                JOINT RightEye
                {
                  OFFSET 4.436895 8.135758 -3.222429
                  CHANNELS 3 Zrotation Yrotation Xrotation
                }
              }
            }
          }
          JOINT LeftShoulder
          {
            OFFSET 23.218927 5.195579 1.621656
            CHANNELS 3 Zrotation Yrotation Xrotation
            JOINT LeftArm
            {
              OFFSET 15.902118 2e-06 -2e-06
              CHANNELS 3 Zrotation Yrotation Xrotation
              JOINT LeftForeArm
              {
                OFFSET 28.739307 0.0 -1e-06
                CHANNELS 3 Zrotation Yrotation Xrotation
                JOINT LeftHand
                {
                  OFFSET 27.093981 -4e-06 0.0
                  CHANNELS 3 Zrotation Yrotation Xrotation
                  JOINT LeftHandThumb1
                  {
                    OFFSET 2.276781 3.380274 0.83384
                    CHANNELS 3 Zrotation Yrotation Xrotation
                    JOINT LeftHandThumb2
                    {
                      OFFSET 4.705309 -1e-06 -1e-06
                      CHANNELS 3 Zrotation Yrotation Xrotation
                      JOINT LeftHandThumb3
                      {
                        OFFSET 2.798515 0.0 3e-06
                        CHANNELS 3 Zrotation Yrotation Xrotation
                        JOINT LeftHandThumbEnd
                        {
                          OFFSET 3.180793 4e-06 -4e-06
                          CHANNELS 3 Zrotation Yrotation Xrotation
                        }
                      }
                    }
                  }
                  JOINT LeftHandIndex1
                  {
                    OFFSET 3.247786 2.352677 0.137192
                    CHANNELS 3 Zrotation Yrotation Xrotation
                    JOINT LeftHandIndex2
                    {
                      OFFSET 6.367095 1e-06 0.0
                      CHANNELS 3 Zrotation Yrotation Xrotation
                      JOINT LeftHandIndex3
                      {
                        OFFSET 3.662364 0.0 0.0
                        CHANNELS 3 Zrotation Yrotation Xrotation
                        JOINT LeftHandIndex4
                        {
                          OFFSET 2.329242 4e-06 -4e-06
                          CHANNELS 3 Zrotation Yrotation Xrotation
                          JOINT LeftHandIndexEnd
                          {
                            OFFSET 2.767823 1e-06 0.0
                            CHANNELS 3 Zrotation Yrotation Xrotation
                          }
                        }
                      }
                    }
                  }
                  JOINT LeftHandMiddle1
                  {
                    OFFSET 3.163612 0.945023 -0.406112
                    CHANNELS 3 Zrotation Yrotation Xrotation
                    JOINT LeftHandMiddle2
                    {
                      OFFSET 6.276789 3e-06 0.0
                      CHANNELS 3 Zrotation Yrotation Xrotation
                      JOINT LeftHandMiddle3
                      {
                        OFFSET 4.35652 -1e-06 4e-06
                        CHANNELS 3 Zrotation Yrotation Xrotation
                        JOINT LeftHandMiddle4
                        {
                          OFFSET 2.996877 0.0 8e-06
                          CHANNELS 3 Zrotation Yrotation Xrotation
                          JOINT LeftHandMiddleEnd
                          {
                            OFFSET 2.323256 3e-06 -4e-06
                            CHANNELS 3 Zrotation Yrotation Xrotation
                          }
                        }
                      }
                    }
                  }
                  JOINT LeftHandRing1
                  {
                    OFFSET 2.882606 -0.309162 0.107445
                    CHANNELS 3 Zrotation Yrotation Xrotation
                    JOINT LeftHandRing2
                    {
                      OFFSET 6.033198 0.0 4e-06
                      CHANNELS 3 Zrotation Yrotation Xrotation
                      JOINT LeftHandRing3
                      {
                        OFFSET 4.350578 3e-06 0.0
                        CHANNELS 3 Zrotation Yrotation Xrotation
                        JOINT LeftHandRing4
                        {
                          OFFSET 2.651321 2e-06 -7e-06
                          CHANNELS 3 Zrotation Yrotation Xrotation
                          JOINT LeftHandRingEnd
                          {
                            OFFSET 1.937663 1e-06 -4e-06
                            CHANNELS 3 Zrotation Yrotation Xrotation
                          }
                        }
                      }
                    }
                  }
                  JOINT LeftHandPinky1
                  {
                    OFFSET 2.865315 -1.525436 0.575687
                    CHANNELS 3 Zrotation Yrotation Xrotation
                    JOINT LeftHandPinky2
                    {
                      OFFSET 5.54936 1e-06 -8e-06
                      CHANNELS 3 Zrotation Yrotation Xrotation
                      JOINT LeftHandPinky3
                      {
                        OFFSET 3.070974 0.0 -4e-06
                        CHANNELS 3 Zrotation Yrotation Xrotation
                        JOINT LeftHandPinky4
                        {
                          OFFSET 1.549672 1e-06 0.0
                          CHANNELS 3 Zrotation Yrotation Xrotation
                          JOINT LeftHandPinkyEnd
                          {
                            OFFSET 1.952123 0.0 0.0
                            CHANNELS 3 Zrotation Yrotation Xrotation
                          }
                        }
                      }
                    }
                  }
                }
              }
            }
          }
          JOINT RightShoulder
          {
            OFFSET 23.161716 5.296122 -1.380114
            CHANNELS 3 Zrotation Yrotation Xrotation
            JOINT RightArm
            {
              OFFSET -16.027195 -2e-06 1.1e-05
              CHANNELS 3 Zrotation Yrotation Xrotation
              JOINT RightForeArm
              {
                OFFSET -28.736639 4e-06 2e-06
                CHANNELS 3 Zrotation Yrotation Xrotation
                JOINT RightHand
                {
                  OFFSET -27.133619 6e-06 0.0
                  CHANNELS 3 Zrotation Yrotation Xrotation
                  JOINT RightHandThumb1
                  {
                    OFFSET -2.274328 -3.351035 -0.83067
                    CHANNELS 3 Zrotation Yrotation Xrotation
                    JOINT RightHandThumb2
                    {
                      OFFSET -4.703594 -3e-06 2e-06
                      CHANNELS 3 Zrotation Yrotation Xrotation
                      JOINT RightHandThumb3
                      {
                        OFFSET -2.794935 -4e-06 -3e-06
                        CHANNELS 3 Zrotation Yrotation Xrotation
                        JOINT RightHandThumbEnd
                        {
                          OFFSET -3.183852 4e-06 1e-06
                          CHANNELS 3 Zrotation Yrotation Xrotation
                        }
                      }
                    }
                  }
                  JOINT RightHandIndex1
                  {
                    OFFSET -3.253496 -2.33755 -0.127667
                    CHANNELS 3 Zrotation Yrotation Xrotation
                    JOINT RightHandIndex2
                    {
                      OFFSET -6.344434 0.0 0.0
                      CHANNELS 3 Zrotation Yrotation Xrotation
                      JOINT RightHandIndex3
                      {
                        OFFSET -3.654871 0.0 -8e-06
                        CHANNELS 3 Zrotation Yrotation Xrotation
                        JOINT RightHandIndex4
                        {
                          OFFSET -2.327586 -1e-06 0.0
                          CHANNELS 3 Zrotation Yrotation Xrotation
                          JOINT RightHandIndexEnd
                          {
                            OFFSET -2.770001 3e-06 8e-06
                            CHANNELS 3 Zrotation Yrotation Xrotation
                          }
                        }
                      }
                    }
                  }
                  JOINT RightHandMiddle1
                  {
                    OFFSET -3.168223 -0.944764 0.411762
                    CHANNELS 3 Zrotation Yrotation Xrotation
                    JOINT RightHandMiddle2
                    {
                      OFFSET -6.266691 -1e-06 -4e-06
                      CHANNELS 3 Zrotation Yrotation Xrotation
                      JOINT RightHandMiddle3
                      {
                        OFFSET -4.348901 0.0 0.0
                        CHANNELS 3 Zrotation Yrotation Xrotation
                        JOINT RightHandMiddle4
                        {
                          OFFSET -3.00024 2e-06 -4e-06
                          CHANNELS 3 Zrotation Yrotation Xrotation
                          JOINT RightHandMiddleEnd
                          {
                            OFFSET -2.321477 -4e-06 -4e-06
                            CHANNELS 3 Zrotation Yrotation Xrotation
                          }
                        }
                      }
                    }
                  }
                  JOINT RightHandRing1
                  {
                    OFFSET -2.885654 0.293261 -0.119232
                    CHANNELS 3 Zrotation Yrotation Xrotation
                    JOINT RightHandRing2
                    {
                      OFFSET -6.032835 -1e-06 -4e-06
                      CHANNELS 3 Zrotation Yrotation Xrotation
                      JOINT RightHandRing3
                      {
                        OFFSET -4.33881 0.0 -4e-06
                        CHANNELS 3 Zrotation Yrotation Xrotation
                        JOINT RightHandRing4
                        {
                          OFFSET -2.654903 -4e-06 -4e-06
                          CHANNELS 3 Zrotation Yrotation Xrotation
                          JOINT RightHandRingEnd
                          {
                            OFFSET -1.935122 0.0 4e-06
                            CHANNELS 3 Zrotation Yrotation Xrotation
                          }
                        }
                      }
                    }
                  }
                  JOINT RightHandPinky1
                  {
                    OFFSET -2.866241 1.503904 -0.60527
                    CHANNELS 3 Zrotation Yrotation Xrotation
                    JOINT RightHandPinky2
                    {
                      OFFSET -5.553177 -2e-06 0.0
                      CHANNELS 3 Zrotation Yrotation Xrotation
                      JOINT RightHandPinky3
                      {
                        OFFSET -3.062664 -1e-06 -4e-06
                        CHANNELS 3 Zrotation Yrotation Xrotation
                        JOINT RightHandPinky4
                        {
                          OFFSET -1.546529 2e-06 4e-06
                          CHANNELS 3 Zrotation Yrotation Xrotation
                          JOINT RightHandPinkyEnd
                          {
                            OFFSET -1.952341 0.0 -4e-06
                            CHANNELS 3 Zrotation Yrotation Xrotation
                          }
                        }
                      }
                    }
                  }
                }
              }
            }
          }
        }
      }
    }
    JOINT LeftLeg
    {
      OFFSET -8.443107 2.567604 10.043214
      CHANNELS 3 Zrotation Yrotation Xrotation
      JOINT LeftShin
      {
        OFFSET 43.229198 1e-06 -1e-06
        CHANNELS 3 Zrotation Yrotation Xrotation
        JOINT LeftFoot
        {
          OFFSET 42.298611 1e-06 1e-06
          CHANNELS 3 Zrotation Yrotation Xrotation
          JOINT LeftToeBase
          {
            OFFSET 14.165858 1e-06 0.0
            CHANNELS 3 Zrotation Yrotation Xrotation
            JOINT LeftToeEnd
            {
              OFFSET 6.7141 -0.234461 0.0
              CHANNELS 3 Zrotation Yrotation Xrotation
            }
          }
        }
      }
    }
    JOINT RightLeg
    {
      OFFSET -8.303923 2.592729 -10.047278
      CHANNELS 3 Zrotation Yrotation Xrotation
      JOINT RightShin
      {
        OFFSET -43.369682 0.0 1e-06
        CHANNELS 3 Zrotation Yrotation Xrotation
        JOINT RightFoot
        {
          OFFSET -42.260784 4e-06 2e-06
          CHANNELS 3 Zrotation Yrotation Xrotation
          JOINT RightToeBase
          {
            OFFSET -14.222245 -2e-06 -1e-06
            CHANNELS 3 Zrotation Yrotation Xrotation
            JOINT RightToeEnd
            {
              OFFSET -6.660062 0.232574 -2e-06
              CHANNELS 3 Zrotation Yrotation Xrotation
            }
          }
        }
      }
    }
  }
}
MOTION
Frames: 4
Frame Time: 0.03333333333333333
0.0 0.0 0.0 0.0 -0.0 0.0 -1.91862 96.397301 -6.736708 87.828819 -1.725616 92.787743 7.225295 0.532582 0.003732 -8.500884 -0.286304 -0.203 18.235786 0.425431 -2.517705 13.540329 0.031878 2.717865 -2.558856 -0.413601 0.577019 -39.259315 2.395355 -0.607881 6e-06 -0.0 -0.0 0.009618 0.024283 0.019749 0.058419 0.028027 0.014448 0.025527 0.014927 0.039342 -115.373108 -84.797867 128.363632 45.776371 -21.757654 -16.494331 90.385475 0.497805 1.652902 10.10675 -0.015245 -48.097134 17.636641 -26.322735 52.41119 -19.46666 -14.3956 29.410389 -1e-06 -8.774821 -3e-06 16.961159 -18.913839 5.915275 -0.609777 -1.795654 -3.889328 -4.807088 -11.046812 -2.93785 5e-06 -20.976015 1e-06 -5.019971 -25.033558 -4.03188 6e-06 0.0 0.0 -10.634535 -5.686971 -3.565588 10.573274 -17.922949 -3.113898 3e-06 -13.821208 1e-06 -0.501779 -31.181498 -4.027012 -11.507493 -59.540337 7.465638 -13.982716 -7.150198 -2.875043 13.772729 -8.401491 -3.21824 0.347733 -34.211552 0.771658 -0.963029 -17.73337 2.621021 0.0 -0.0 0.0 -17.34642 -20.095221 -4.201782 21.757559 -1.638377 3.866429 2e-06 -6.338823 1e-06 -1.697589 -22.591742 -6.194005 0.0 -4e-06 -3e-06 80.036041 -85.624535 116.609634 13.84832 -28.131315 0.790254 119.13269 -3.485363 2.442217 18.340342 -10.424564 -59.987606 22.182117 -20.375898 49.933327 -16.701811 -16.743525 28.476534 -1e-06 -12.6906 -1e-06 16.13261 -17.554518 2.810467 -0.105921 -1.513855 -4.275882 -5.039041 -5.612873 -2.953557 3e-06 -11.020524 -3e-06 -6.111298 -15.895334 -3.840469 -0.0 -0.0 1e-06 -10.283371 -5.680289 -4.341839 11.028291 -11.302405 -2.372632 -1.384269 -14.23858 -6.320124 -0.62544 -26.924191 -3.8276 -3.251993 -48.856861 -4.409174 -13.708525 -7.36348 -3.720941 18.141146 -14.052739 -3.242674 5e-06 -18.787271 -3e-06 -0.429713 -8.456043 2.555505 1e-06 0.0 -0.0 -15.923536 -20.09449 -5.473584 30.419214 -7.190827 1.735928 3e-06 -8.162927 -2e-06 -1.861904 -22.861471 -6.167942 -1e-06 -3e-06 -2e-06 158.71553 -11.395224 0.452401 35.392643 -0.071536 0.592863 -85.493736 4.940309 -10.211446 -4.34941 1.620088 2.167866 -0.999999 -0.0 0.0 -18.6931 -8.639726 -12.436471 34.120979 0.071915 0.122978 -84.363777 1.585896 -8.257897 -4.247082 0.654819 1.688318 -1.000002 -0.0 -0.0 
0.0 0.0 0.0 0.0 -0.0 0.0 -1.938771 97.068436 -6.55734 87.618881 -1.963524 92.772446 6.664893 0.554873 -0.082324 -8.595135 -0.361704 -0.34071 18.410223 0.56316 -2.90598 13.574846 0.947491 2.561203 -2.532985 -0.545092 1.015105 -38.903088 2.295907 -0.405131 6e-06 0.0 -0.0 -0.006127 0.017916 0.014065 0.116668 0.030835 0.024339 0.067397 0.003617 0.017265 -129.688568 -85.194176 143.393219 46.783451 -19.996218 -10.425309 85.908691 0.355983 1.609936 12.627812 -2.971199 -50.279488 17.636629 -26.322731 52.411201 -19.466661 -14.395596 29.410389 -1e-06 -8.774822 -2e-06 17.424911 -19.4524 5.670622 -0.609777 -1.795654 -3.889328 -4.807088 -11.046811 -2.937851 4e-06 -20.976017 1e-06 -5.01997 -25.03356 -4.031883 6e-06 -1e-06 2e-06 -10.634535 -5.686971 -3.565587 10.573275 -17.922949 -3.1139 2e-06 -13.821209 0.0 -0.501778 -31.181505 -4.027015 -11.688988 -59.438091 7.799956 -13.982714 -7.150198 -2.875041 13.77273 -8.401489 -3.218242 0.347732 -34.211555 0.771656 -0.963029 -17.733372 2.62102 -0.0 -1e-06 -0.0 -17.34642 -20.095217 -4.201783 21.757561 -1.638374 3.86643 1e-06 -6.338822 1e-06 -1.697589 -22.591747 -6.194007 -0.0 -4e-06 -2e-06 62.457218 -84.849762 134.495972 15.219425 -27.993086 2.381161 119.126945 -3.00836 2.508667 18.871683 -9.804887 -53.009251 22.182114 -20.375895 49.933319 -16.701817 -16.74353 28.47653 -2e-06 -12.6906 -1e-06 15.994886 -17.583012 2.865893 -0.105919 -1.513859 -4.275882 -5.039042 -5.612869 -2.953556 5e-06 -11.020523 -2e-06 -6.111298 -15.89533 -3.84047 0.0 -0.0 -1e-06 -10.283369 -5.680288 -4.341839 11.028294 -11.302402 -2.372633 -1.384268 -14.23858 -6.32012 -0.625438 -26.924187 -3.827603 -3.415506 -49.067261 -4.231554 -13.708524 -7.363478 -3.720938 18.141153 -14.052739 -3.242676 6e-06 -18.78727 -3e-06 -0.429712 -8.456043 2.555504 0.0 1e-06 1e-06 -15.923536 -20.094482 -5.473583 30.419214 -7.190824 1.735924 2e-06 -8.162925 -1e-06 -1.861904 -22.861467 -6.167943 -0.0 -3e-06 -2e-06 160.022888 -11.397346 0.852741 32.522957 -0.050149 0.494428 -84.175552 4.389411 -10.255966 -4.645672 1.510488 2.12535 -0.999999 -0.0 -0.0 -17.209921 -8.036738 -12.959874 30.84408 0.046755 0.144077 -82.850418 1.794302 -8.184433 -4.498274 0.707198 1.672496 -1.000003 -0.0 -0.0 
0.0 0.0 0.0 0.0 -0.0 0.0 -1.882728 97.631279 -6.066996 87.83493 -1.796076 92.467102 6.102087 0.486265 -0.18859 -8.84626 -0.471816 -0.528254 17.895788 0.53926 -3.244334 14.88023 1.305593 2.581034 -2.44553 -0.632583 1.13529 -38.046474 2.350964 -0.460755 6e-06 0.0 -0.0 -0.007053 0.022073 0.052023 0.108876 0.040229 0.058841 0.067506 0.004589 0.054915 -130.134399 -85.201843 144.27533 46.960361 -18.357803 -5.868718 86.948204 0.166698 1.643975 13.825927 -3.490245 -53.109203 17.636633 -26.322733 52.411209 -19.466663 -14.395597 29.410395 -1e-06 -8.774821 -1e-06 17.603168 -19.196461 5.586995 -0.609777 -1.795652 -3.889329 -4.807088 -11.046811 -2.937852 5e-06 -20.976019 0.0 -5.019968 -25.03356 -4.031882 6e-06 1e-06 1e-06 -10.634535 -5.686971 -3.565589 10.573276 -17.922955 -3.113902 4e-06 -13.821211 0.0 -0.501773 -31.181511 -4.027019 -11.504974 -59.481384 7.724085 -13.982716 -7.150198 -2.875044 13.772732 -8.401494 -3.21824 0.347738 -34.211555 0.771654 -0.963028 -17.73337 2.621021 0.0 1e-06 0.0 -17.34642 -20.095217 -4.201786 21.757559 -1.638376 3.866428 2e-06 -6.338824 1e-06 -1.697587 -22.591745 -6.194007 0.0 -4e-06 -3e-06 67.796997 -84.709755 128.719101 16.62554 -28.007153 2.433073 122.699142 -2.990576 2.950652 19.345512 -9.008702 -50.080997 22.182121 -20.375898 49.933327 -16.701817 -16.74353 28.476534 -5e-06 -12.690601 -1e-06 15.829086 -17.285681 2.847773 -0.10592 -1.513856 -4.275883 -5.039041 -5.612871 -2.953556 6e-06 -11.020523 -1e-06 -6.111296 -15.89533 -3.840473 -0.0 0.0 1e-06 -10.283371 -5.680288 -4.341841 11.028296 -11.302402 -2.372633 -1.384266 -14.238579 -6.320122 -0.625433 -26.924185 -3.827603 -3.508908 -49.121017 -3.963378 -13.708524 -7.363476 -3.720942 18.141153 -14.052739 -3.242675 9e-06 -18.787266 -1e-06 -0.42971 -8.456043 2.555504 -1e-06 2e-06 0.0 -15.923534 -20.094479 -5.47359 30.41921 -7.190832 1.735927 4e-06 -8.162924 1e-06 -1.861901 -22.861467 -6.167938 1e-06 -2e-06 -1e-06 162.142395 -11.114909 0.585597 29.642742 -0.040627 0.434068 -83.156471 4.103696 -10.317579 -4.959971 1.4781 2.108539 -0.999999 0.0 0.0 -15.376901 -7.976376 -13.350133 28.022091 0.029174 0.128603 -81.684853 2.27511 -8.371545 -4.651128 0.660228 1.645426 -1.000002 -0.0 0.0 
0.0 0.0 0.0 0.0 -0.0 0.0 -1.805542 98.138588 -5.314796 88.193222 -1.231007 92.009361 5.448819 0.442625 -0.32697 -9.152924 -0.517085 -0.591174 16.954205 0.410165 -3.480895 16.760521 1.089964 2.591558 -2.392708 -0.674253 1.088142 -36.414864 2.580965 -0.626054 6e-06 -0.0 -0.0 -0.00445 0.022388 0.082934 0.04982 0.034991 0.079802 0.014038 0.011922 0.092053 -123.588257 -84.752113 138.068848 46.540588 -16.452162 -4.05826 92.150375 0.109982 1.535762 13.335078 -1.820848 -55.747124 17.636627 -26.322733 52.411205 -19.466665 -14.395598 29.410395 -1e-06 -8.774822 -1e-06 17.782402 -18.877003 5.507094 -0.609777 -1.795655 -3.889328 -4.807088 -11.046809 -2.93785 4e-06 -20.976019 1e-06 -5.019969 -25.03356 -4.031881 7e-06 1e-06 0.0 -10.634534 -5.686968 -3.565589 10.573275 -17.922951 -3.113901 3e-06 -13.821208 1e-06 -0.501777 -31.181505 -4.027014 -11.509159 -59.866711 7.589075 -13.982714 -7.150197 -2.875043 13.77273 -8.401493 -3.218242 0.347734 -34.211555 0.771655 -0.963028 -17.733372 2.621019 0.0 0.0 -1e-06 -17.346416 -20.095217 -4.201784 21.757561 -1.638376 3.866429 1e-06 -6.338824 1e-06 -1.697589 -22.591745 -6.194006 0.0 -2e-06 -2e-06 88.844727 -84.868362 106.57592 18.232033 -28.062984 1.700882 127.803307 -3.192298 3.095046 18.978294 -9.303527 -48.153572 22.182121 -20.375898 49.933323 -16.701817 -16.74353 28.476536 -3e-06 -12.690605 -2e-06 15.787521 -17.057367 2.769863 -0.10592 -1.513856 -4.275883 -5.039042 -5.612873 -2.953557 5e-06 -11.020526 -2e-06 -6.1113 -15.895334 -3.84047 0.0 -0.0 -1e-06 -10.283373 -5.680288 -4.341839 11.028297 -11.302407 -2.372632 -1.384269 -14.238585 -6.320123 -0.625438 -26.924194 -3.827601 -3.654669 -49.279369 -3.745096 -13.708527 -7.363476 -3.720941 18.141151 -14.052741 -3.242674 7e-06 -18.787271 -1e-06 -0.429712 -8.456045 2.555505 -0.0 -1e-06 -0.0 -15.923538 -20.09449 -5.473586 30.419222 -7.190829 1.735928 1e-06 -8.162928 1e-06 -1.861901 -22.861473 -6.167943 0.0 -1e-06 -1e-06 165.026779 -10.788441 -0.14914 26.570377 -0.031447 0.419901 -82.244728 3.835908 -10.187619 -5.238428 1.485007 2.115693 -0.999998 -0.0 0.0 -12.973548 -7.95717 -13.389408 25.219368 0.003371 0.116672 -80.739418 2.409857 -8.651871 -4.706287 0.605328 1.630591 -1.000001 -0.0 0.0 
